<svg width="32" height="32" viewBox="0 0 32 32" fill="none" xmlns="http://www.w3.org/2000/svg">
  <!-- Brain outline -->
  <path d="M16 2C19.5 2 22.5 4.5 24 8C25.5 7.5 27 8.5 27.5 10.5C28.5 9.5 30 10 30 12C30 13.5 29 14.5 28 15C28.5 16.5 28 18.5 26.5 19.5C27 21 26 22.5 24.5 23C24.5 24.5 23 26 21 26C20 27.5 18 28 16 28C14 28 12 27.5 11 26C9 26 7.5 24.5 7.5 23C6 22.5 5 21 5.5 19.5C4 18.5 3.5 16.5 4 15C3 14.5 2 13.5 2 12C2 10 3.5 9.5 4.5 10.5C5 8.5 6.5 7.5 8 8C9.5 4.5 12.5 2 16 2Z" stroke="url(#brainGradient)" stroke-width="1.5" fill="url(#brainFill)"/>
  
  <!-- Neural pathways -->
  <path d="M8 12C10 10 12 12 14 10C16 8 18 10 20 8C22 10 24 8 26 10" stroke="url(#neuralGradient)" stroke-width="1" fill="none" opacity="0.8"/>
  <path d="M6 16C8 14 10 16 12 14C14 12 16 14 18 12C20 14 22 12 24 14C26 16 28 14 30 16" stroke="url(#neuralGradient)" stroke-width="1" fill="none" opacity="0.6"/>
  <path d="M7 20C9 18 11 20 13 18C15 16 17 18 19 16C21 18 23 16 25 18" stroke="url(#neuralGradient)" stroke-width="1" fill="none" opacity="0.4"/>
  
  <!-- Neural nodes -->
  <circle cx="10" cy="10" r="1.5" fill="url(#nodeGradient)" opacity="0.9"/>
  <circle cx="16" cy="8" r="1.5" fill="url(#nodeGradient)" opacity="0.9"/>
  <circle cx="22" cy="10" r="1.5" fill="url(#nodeGradient)" opacity="0.9"/>
  <circle cx="8" cy="16" r="1.5" fill="url(#nodeGradient)" opacity="0.7"/>
  <circle cx="16" cy="14" r="1.5" fill="url(#nodeGradient)" opacity="0.8"/>
  <circle cx="24" cy="16" r="1.5" fill="url(#nodeGradient)" opacity="0.7"/>
  <circle cx="12" cy="20" r="1.5" fill="url(#nodeGradient)" opacity="0.6"/>
  <circle cx="20" cy="20" r="1.5" fill="url(#nodeGradient)" opacity="0.6"/>
  
  <!-- Synaptic connections -->
  <line x1="10" y1="10" x2="16" y2="8" stroke="url(#synapseGradient)" stroke-width="0.5" opacity="0.6"/>
  <line x1="16" y1="8" x2="22" y2="10" stroke="url(#synapseGradient)" stroke-width="0.5" opacity="0.6"/>
  <line x1="8" y1="16" x2="16" y2="14" stroke="url(#synapseGradient)" stroke-width="0.5" opacity="0.5"/>
  <line x1="16" y1="14" x2="24" y2="16" stroke="url(#synapseGradient)" stroke-width="0.5" opacity="0.5"/>
  <line x1="12" y1="20" x2="20" y2="20" stroke="url(#synapseGradient)" stroke-width="0.5" opacity="0.4"/>
  
  <!-- Definitions -->
  <defs>
    <!-- Brain gradient -->
    <linearGradient id="brainGradient" x1="0%" y1="0%" x2="100%" y2="100%">
      <stop offset="0%" stop-color="#3B82F6"/>
      <stop offset="50%" stop-color="#8B5CF6"/>
      <stop offset="100%" stop-color="#06B6D4"/>
    </linearGradient>
    
    <!-- Brain fill -->
    <radialGradient id="brainFill" cx="50%" cy="50%" r="50%">
      <stop offset="0%" stop-color="#3B82F6" stop-opacity="0.1"/>
      <stop offset="100%" stop-color="#8B5CF6" stop-opacity="0.05"/>
    </radialGradient>
    
    <!-- Neural pathway gradient -->
    <linearGradient id="neuralGradient" x1="0%" y1="0%" x2="100%" y2="0%">
      <stop offset="0%" stop-color="#06B6D4"/>
      <stop offset="50%" stop-color="#3B82F6"/>
      <stop offset="100%" stop-color="#8B5CF6"/>
    </linearGradient>
    
    <!-- Node gradient -->
    <radialGradient id="nodeGradient" cx="50%" cy="50%" r="50%">
      <stop offset="0%" stop-color="#FFFFFF"/>
      <stop offset="100%" stop-color="#3B82F6"/>
    </radialGradient>
    
    <!-- Synapse gradient -->
    <linearGradient id="synapseGradient" x1="0%" y1="0%" x2="100%" y2="100%">
      <stop offset="0%" stop-color="#06B6D4"/>
      <stop offset="100%" stop-color="#8B5CF6"/>
    </linearGradient>
  </defs>
</svg> 