<?xml version="1.0" encoding="UTF-8"?>
<svg width="800" height="400" viewBox="0 0 800 400" fill="none" xmlns="http://www.w3.org/2000/svg">
  <rect width="800" height="400" fill="#1E293B"/>
  <!-- Brain outline -->
  <path d="M350 150C380 130 420 130 450 150C480 170 490 200 480 230C470 260 440 280 400 280C360 280 330 260 320 230C310 200 320 170 350 150Z" stroke="#3B82F6" stroke-width="2"/>
  <!-- Neural connections -->
  <path d="M380 180L420 220M420 180L380 220" stroke="#3B82F6" stroke-width="2"/>
  <circle cx="380" cy="180" r="5" fill="#3B82F6"/>
  <circle cx="420" cy="180" r="5" fill="#3B82F6"/>
  <circle cx="380" cy="220" r="5" fill="#3B82F6"/>
  <circle cx="420" cy="220" r="5" fill="#3B82F6"/>
  <text x="400" y="320" text-anchor="middle" fill="#E2E8F0" font-family="system-ui" font-size="24">Neuroscience</text>
  <text x="400" y="350" text-anchor="middle" fill="#94A3B8" font-family="system-ui" font-size="16">Brain Research</text>
</svg> 