<?xml version="1.0" encoding="UTF-8"?>
<svg width="800" height="400" viewBox="0 0 800 400" fill="none" xmlns="http://www.w3.org/2000/svg">
  <rect width="800" height="400" fill="#1E293B"/>
  <path d="M400 100C450 100 490 140 490 190C490 240 450 280 400 280C350 280 310 240 310 190C310 140 350 100 400 100Z" fill="#3B82F6" fill-opacity="0.2"/>
  <path d="M400 120C440 120 470 150 470 190C470 230 440 260 400 260C360 260 330 230 330 190C330 150 360 120 400 120Z" stroke="#3B82F6" stroke-width="2"/>
  <path d="M400 140C430 140 450 160 450 190C450 220 430 240 400 240C370 240 350 220 350 190C350 160 370 140 400 140Z" fill="#3B82F6" fill-opacity="0.4"/>
  <text x="400" y="320" text-anchor="middle" fill="#E2E8F0" font-family="system-ui" font-size="24">Research Article</text>
  <text x="400" y="350" text-anchor="middle" fill="#94A3B8" font-family="system-ui" font-size="16">Neuronova</text>
</svg> 